<?xml version="1.0" standalone="no"?>
<!-- Creator: fig2dev Version 3.2.7a -->
<!-- CreationDate: 2021-12-29 16:16:23 -->
<!-- Magnification: 1.05 -->
<svg	xmlns="http://www.w3.org/2000/svg"
	xmlns:xlink="http://www.w3.org/1999/xlink"
	width="485pt" height="230pt"
	viewBox="1328 1103 7694 3644">
<g fill="none">
<!-- Line -->
<rect x="1350" y="1125" width="7650" height="3600" rx="180"
	stroke="#ffd600" stroke-width="15px"/>
<!-- Text -->
<text xml:space="preserve" x="3375" y="3015" fill="#000000" font-family="Helvetica" font-style="normal" font-weight="bold" font-size="216" text-anchor="middle">1</text>
<!-- Text -->
<text xml:space="preserve" x="5175" y="3015" fill="#000000" font-family="Helvetica" font-style="normal" font-weight="bold" font-size="216" text-anchor="middle">Re:r</text>
<!-- Text -->
<text xml:space="preserve" x="6975" y="3015" fill="#000000" font-family="Helvetica" font-style="normal" font-weight="bold" font-size="216" text-anchor="middle">1</text>
<!-- Text -->
<text xml:space="preserve" x="1800" y="4365" fill="#000000" font-family="Helvetica" font-style="normal" font-weight="bold" font-size="216" text-anchor="middle">Ce:B</text>
<!-- Text -->
<text xml:space="preserve" x="1800" y="1665" fill="#000000" font-family="Helvetica" font-style="normal" font-weight="bold" font-size="216" text-anchor="middle">Ce:A</text>
<!-- Text -->
<text xml:space="preserve" x="8550" y="4365" fill="#000000" font-family="Helvetica" font-style="normal" font-weight="bold" font-size="216" text-anchor="middle">Ce:D</text>
<!-- Text -->
<text xml:space="preserve" x="8550" y="1665" fill="#000000" font-family="Helvetica" font-style="normal" font-weight="bold" font-size="216" text-anchor="middle">Ce:C</text>
<!-- Line -->
<polyline points=" 3600,2925 4725,2925 4500,3150"
	stroke="#000000" stroke-width="15px"/>
<!-- Line -->
<polyline points=" 5625,2925 6750,2925 6525,3150"
	stroke="#000000" stroke-width="15px"/>
<!-- Line -->
<polyline points=" 7200,2700 8100,1800 8100,2025"
	stroke="#000000" stroke-width="15px"/>
<!-- Line -->
<polyline points=" 7200,3150 8100,4050 7875,4050"
	stroke="#000000" stroke-width="15px"/>
<!-- Line -->
<polyline points=" 2250,1800 3150,2700 2925,2700"
	stroke="#000000" stroke-width="15px"/>
<!-- Line -->
<polyline points=" 2250,4050 3150,3150 3150,3375"
	stroke="#000000" stroke-width="15px"/>
<!-- Line -->
<polyline points=" 2047,4072 2947,3172 2947,3397"
	stroke="#000000" stroke-width="15px"/>
<!-- Line -->
<polyline points=" 6975,2655 7875,1755 7875,1980"
	stroke="#000000" stroke-width="15px"/>
<!-- Line -->
<polyline points=" 7380,2745 8280,1845 8280,2070"
	stroke="#000000" stroke-width="15px"/>
<!-- Line -->
<polyline points=" 7042,3307 7942,4207 7717,4207"
	stroke="#000000" stroke-width="15px"/>
<!-- Line -->
<polyline points=" 7402,3037 8302,3937 8077,3937"
	stroke="#000000" stroke-width="15px"/>
<!-- Line -->
<polyline points=" 7582,2902 8482,3802 8257,3802"
	stroke="#000000" stroke-width="15px"/>
</g>
</svg>
