<?xml version="1.0" standalone="no"?>
<!-- Creator: fig2dev Version 3.2.7a -->
<!-- CreationDate: 2021-12-29 16:32:50 -->
<!-- Magnification: 1.05 -->
<svg	xmlns="http://www.w3.org/2000/svg"
	xmlns:xlink="http://www.w3.org/1999/xlink"
	width="273pt" height="230pt"
	viewBox="1328 1103 4319 3644">
<g fill="none">
<!-- Line -->
<rect x="1350" y="1125" width="4275" height="3600" rx="180"
	stroke="#ffd600" stroke-width="15px"/>
<!-- Text -->
<text xml:space="preserve" x="3375" y="1665" fill="#000000" font-family="Helvetica" font-style="normal" font-weight="bold" font-size="216" text-anchor="middle">Re:r</text>
<!-- Text -->
<text xml:space="preserve" x="5175" y="4365" fill="#000000" font-family="Helvetica" font-style="normal" font-weight="bold" font-size="216" text-anchor="middle">Ce:D</text>
<!-- Text -->
<text xml:space="preserve" x="5175" y="1665" fill="#000000" font-family="Helvetica" font-style="normal" font-weight="bold" font-size="216" text-anchor="middle">Ce:C</text>
<!-- Text -->
<text xml:space="preserve" x="3375" y="3015" fill="#000000" font-family="Helvetica" font-style="normal" font-weight="bold" font-size="216" text-anchor="middle">1</text>
<!-- Text -->
<text xml:space="preserve" x="1800" y="4365" fill="#000000" font-family="Helvetica" font-style="normal" font-weight="bold" font-size="216" text-anchor="middle">Ce:B</text>
<!-- Text -->
<text xml:space="preserve" x="1800" y="1665" fill="#000000" font-family="Helvetica" font-style="normal" font-weight="bold" font-size="216" text-anchor="middle">Ce:A</text>
<!-- Line -->
<polyline points=" 3375,2700 3375,1800 3600,2025"
	stroke="#000000" stroke-width="15px"/>
<!-- Line -->
<polyline points=" 3825,2700 4725,1800 4725,2025"
	stroke="#000000" stroke-width="15px"/>
<!-- Line -->
<polyline points=" 3825,3150 4725,4050 4500,4050"
	stroke="#000000" stroke-width="15px"/>
<!-- Line -->
<polyline points=" 3600,2655 4500,1755 4500,1980"
	stroke="#000000" stroke-width="15px"/>
<!-- Line -->
<polyline points=" 4005,2745 4905,1845 4905,2070"
	stroke="#000000" stroke-width="15px"/>
<!-- Line -->
<polyline points=" 3667,3307 4567,4207 4342,4207"
	stroke="#000000" stroke-width="15px"/>
<!-- Line -->
<polyline points=" 4027,3037 4927,3937 4702,3937"
	stroke="#000000" stroke-width="15px"/>
<!-- Line -->
<polyline points=" 4207,2902 5107,3802 4882,3802"
	stroke="#000000" stroke-width="15px"/>
<!-- Line -->
<polyline points=" 2250,1800 3150,2700 2925,2700"
	stroke="#000000" stroke-width="15px"/>
<!-- Line -->
<polyline points=" 2250,4050 3150,3150 3150,3375"
	stroke="#000000" stroke-width="15px"/>
<!-- Line -->
<polyline points=" 2047,4072 2947,3172 2947,3397"
	stroke="#000000" stroke-width="15px"/>
</g>
</svg>
