<?xml version="1.0" standalone="no"?>
<!-- Creator: fig2dev Version 3.2.7a -->
<!-- CreationDate: 2021-12-23 13:18:42 -->
<!-- Magnification: 1.05 -->
<svg	xmlns="http://www.w3.org/2000/svg"
	xmlns:xlink="http://www.w3.org/1999/xlink"
	width="696pt" height="297pt"
	viewBox="428 878 11038 4712">
<g fill="none">
<!-- Line -->
<rect x="450" y="900" width="10575" height="3825" rx="105"
	stroke="#ffd600" stroke-width="15px"/>
<!-- Text -->
<text xml:space="preserve" x="3375" y="1440" fill="#000000" font-family="Helvetica" font-style="normal" font-weight="bold" font-size="216" text-anchor="middle">Ce:PQ</text>
<!-- Text -->
<text xml:space="preserve" x="8775" y="1440" fill="#000000" font-family="Helvetica" font-style="normal" font-weight="bold" font-size="216" text-anchor="middle">Ce:PcOx</text>
<!-- Text -->
<text xml:space="preserve" x="2025" y="4140" fill="#000000" font-family="Helvetica" font-style="normal" font-weight="bold" font-size="216" text-anchor="middle">Re:r1</text>
<!-- Text -->
<text xml:space="preserve" x="8775" y="4140" fill="#000000" font-family="Helvetica" font-style="normal" font-weight="bold" font-size="216" text-anchor="middle">Re:r2</text>
<!-- Text -->
<text xml:space="preserve" x="3375" y="4140" fill="#000000" font-family="Helvetica" font-style="normal" font-weight="bold" font-size="216" text-anchor="middle">0</text>
<!-- Text -->
<text xml:space="preserve" x="3375" y="5490" fill="#000000" font-family="Helvetica" font-style="normal" font-weight="bold" font-size="216" text-anchor="middle">Ce:Hp</text>
<!-- Text -->
<text xml:space="preserve" x="6075" y="1440" fill="#000000" font-family="Helvetica" font-style="normal" font-weight="bold" font-size="216" text-anchor="middle">R:r</text>
<!-- Text -->
<text xml:space="preserve" x="6075" y="4140" fill="#000000" font-family="Helvetica" font-style="normal" font-weight="bold" font-size="216" text-anchor="middle">Ce:Hn</text>
<!-- Text -->
<text xml:space="preserve" x="7425" y="1440" fill="#000000" font-family="Helvetica" font-style="normal" font-weight="bold" font-size="216" text-anchor="middle">C:E2</text>
<!-- Text -->
<text xml:space="preserve" x="4725" y="1440" fill="#000000" font-family="Helvetica" font-style="normal" font-weight="bold" font-size="216" text-anchor="middle">C:E1</text>
<!-- Text -->
<text xml:space="preserve" x="3375" y="2790" fill="#000000" font-family="Helvetica" font-style="normal" font-weight="bold" font-size="216" text-anchor="middle">1</text>
<!-- Text -->
<text xml:space="preserve" x="4725" y="2790" fill="#000000" font-family="Helvetica" font-style="normal" font-weight="bold" font-size="216" text-anchor="middle">0</text>
<!-- Text -->
<text xml:space="preserve" x="6075" y="2790" fill="#000000" font-family="Helvetica" font-style="normal" font-weight="bold" font-size="216" text-anchor="middle">1</text>
<!-- Text -->
<text xml:space="preserve" x="7425" y="2790" fill="#000000" font-family="Helvetica" font-style="normal" font-weight="bold" font-size="216" text-anchor="middle">0</text>
<!-- Text -->
<text xml:space="preserve" x="8775" y="2790" fill="#000000" font-family="Helvetica" font-style="normal" font-weight="bold" font-size="216" text-anchor="middle">1</text>
<!-- Text -->
<text xml:space="preserve" x="2025" y="2790" fill="#000000" font-family="Helvetica" font-style="normal" font-weight="bold" font-size="216" text-anchor="end">Ce:PQH2</text>
<!-- Text -->
<text xml:space="preserve" x="9990" y="2790" fill="#000000" font-family="Helvetica" font-style="normal" font-weight="bold" font-size="216" text-anchor="start">Ce:PcRed</text>
<!-- Line -->
<polyline points=" 3285,2925 3285,3825 3060,3600"
	stroke="#000000" stroke-width="15px"/>
<!-- Line -->
<polyline points=" 3465,2925 3465,3825 3240,3600"
	stroke="#000000" stroke-width="15px"/>
<!-- Line -->
<polyline points=" 4950,2700 5850,2700 5625,2925"
	stroke="#000000" stroke-width="15px"/>
<!-- Line -->
<polyline points=" 9000,2700 9900,2700 9675,2925"
	stroke="#000000" stroke-width="15px"/>
<!-- Line -->
<polyline points=" 3375,2475 3375,1575 3600,1800"
	stroke="#000000" stroke-width="15px"/>
<!-- Line -->
<polyline points=" 4725,2475 4725,1575 4950,1800"
	stroke="#000000" stroke-width="15px"/>
<!-- Line -->
<polyline points=" 7425,2475 7425,1575 7650,1800"
	stroke="#000000" stroke-width="15px"/>
<!-- Line -->
<polyline points=" 3600,2790 4500,2790 4275,3015"
	stroke="#000000" stroke-width="15px"/>
<!-- Line -->
<polyline points=" 8775,1575 8775,2475 9000,2250"
	stroke="#000000" stroke-width="15px"/>
<!-- Line -->
<polyline points=" 6300,2700 7200,2700 6975,2925"
	stroke="#000000" stroke-width="15px"/>
<!-- Line -->
<polyline points=" 2250,2700 3150,2700 2925,2925"
	stroke="#000000" stroke-width="15px"/>
<!-- Line -->
<polyline points=" 3600,2610 4500,2610 4275,2835"
	stroke="#000000" stroke-width="15px"/>
<!-- Line -->
<polyline points=" 7650,2700 8550,2700 8325,2925"
	stroke="#000000" stroke-width="15px"/>
<!-- Line -->
<polyline points=" 6075,2475 6075,1575 6300,1800"
	stroke="#000000" stroke-width="15px"/>
<!-- Line -->
<polyline points=" 3150,2925 2250,3825 2475,3825"
	stroke="#000000" stroke-width="15px"/>
<!-- Line -->
<polyline points=" 8775,2925 8775,3825 9000,3600"
	stroke="#000000" stroke-width="15px"/>
<!-- Line -->
<polyline points=" 3375,4275 3375,5175 3600,4950"
	stroke="#000000" stroke-width="15px"/>
<!-- Line -->
<polyline points=" 6075,3825 6075,2925 6300,3150"
	stroke="#000000" stroke-width="15px"/>
<!-- Line -->
<polyline points=" 5850,2925 3600,4050 3825,4050"
	stroke="#000000" stroke-width="8px"/>
</g>
</svg>
