<?xml version="1.0" standalone="no"?>
<!-- Creator: fig2dev Version 3.2.7a -->
<!-- CreationDate: 2022-04-01 14:23:23 -->
<!-- Magnification: 1.05 -->
<svg	xmlns="http://www.w3.org/2000/svg"
	xmlns:xlink="http://www.w3.org/1999/xlink"
	width="570pt" height="230pt"
	viewBox="203 878 9044 3644">
<g fill="none">
<!-- Line -->
<rect x="225" y="900" width="9000" height="3600" rx="105"
	stroke="#ffffff" stroke-width="15px"/>
<!-- Text -->
<text xml:space="preserve" x="2025" y="2790" fill="#000000" font-family="Helvetica" font-style="normal" font-weight="bold" font-size="216" text-anchor="end">Ce:FdRed</text>
<!-- Text -->
<text xml:space="preserve" x="3375" y="4140" fill="#000000" font-family="Helvetica" font-style="normal" font-weight="bold" font-size="216" text-anchor="middle">Ce:NADP</text>
<!-- Text -->
<text xml:space="preserve" x="3375" y="1440" fill="#000000" font-family="Helvetica" font-style="normal" font-weight="bold" font-size="216" text-anchor="middle">Ce:Hn</text>
<!-- Text -->
<text xml:space="preserve" x="4950" y="2790" fill="#000000" font-family="Helvetica" font-style="normal" font-weight="bold" font-size="216" text-anchor="middle">Re:r</text>
<!-- Text -->
<text xml:space="preserve" x="5625" y="1440" fill="#000000" font-family="Helvetica" font-style="normal" font-weight="bold" font-size="216" text-anchor="start">Ce:NADPH</text>
<!-- Text -->
<text xml:space="preserve" x="8325" y="2790" fill="#000000" font-family="Helvetica" font-style="normal" font-weight="bold" font-size="216" text-anchor="middle">Ce:FdOx</text>
<!-- Text -->
<text xml:space="preserve" x="6525" y="2790" fill="#000000" font-family="Helvetica" font-style="normal" font-weight="bold" font-size="216" text-anchor="middle">1</text>
<!-- Text -->
<text xml:space="preserve" x="3375" y="2790" fill="#000000" font-family="Helvetica" font-style="normal" font-weight="bold" font-size="216" text-anchor="middle">1</text>
<!-- Line -->
<polyline points=" 2250,2790 3150,2790 2925,3015"
	stroke="#000000" stroke-width="15px"/>
<!-- Line -->
<polyline points=" 2250,2610 3150,2610 2925,2835"
	stroke="#000000" stroke-width="15px"/>
<!-- Line -->
<polyline points=" 6750,2790 7650,2790 7425,3015"
	stroke="#000000" stroke-width="15px"/>
<!-- Line -->
<polyline points=" 6750,2610 7650,2610 7425,2835"
	stroke="#000000" stroke-width="15px"/>
<!-- Line -->
<polyline points=" 6525,2475 6525,1575 6750,1800"
	stroke="#000000" stroke-width="15px"/>
<!-- Line -->
<polyline points=" 3375,3825 3375,2925 3600,3150"
	stroke="#000000" stroke-width="15px"/>
<!-- Line -->
<polyline points=" 3375,1575 3375,2475 3600,2250"
	stroke="#000000" stroke-width="15px"/>
<!-- Line -->
<polyline points=" 3600,2700 4500,2700 4275,2925"
	stroke="#000000" stroke-width="15px"/>
<!-- Line -->
<polyline points=" 5400,2700 6300,2700 6075,2925"
	stroke="#000000" stroke-width="15px"/>
</g>
</svg>
