<?xml version="1.0" standalone="no"?>
<!-- Creator: fig2dev Version 3.2.7a -->
<!-- CreationDate: 2022-04-01 14:24:17 -->
<!-- Magnification: 1.05 -->
<svg	xmlns="http://www.w3.org/2000/svg"
	xmlns:xlink="http://www.w3.org/1999/xlink"
	width="358pt" height="230pt"
	viewBox="428 878 5669 3644">
<g fill="none">
<!-- Line -->
<rect x="450" y="900" width="5625" height="3600" rx="105"
	stroke="#ffffff" stroke-width="15px"/>
<!-- Text -->
<text xml:space="preserve" x="2025" y="2790" fill="#000000" font-family="Helvetica" font-style="normal" font-weight="bold" font-size="216" text-anchor="end">Ce:FdRed</text>
<!-- Text -->
<text xml:space="preserve" x="5175" y="2790" fill="#000000" font-family="Helvetica" font-style="normal" font-weight="bold" font-size="216" text-anchor="middle">Ce:FdOx</text>
<!-- Text -->
<text xml:space="preserve" x="3375" y="4140" fill="#000000" font-family="Helvetica" font-style="normal" font-weight="bold" font-size="216" text-anchor="middle">Ce:NADP</text>
<!-- Text -->
<text xml:space="preserve" x="2475" y="1440" fill="#000000" font-family="Helvetica" font-style="normal" font-weight="bold" font-size="216" text-anchor="start">Ce:NADPH</text>
<!-- Text -->
<text xml:space="preserve" x="2025" y="4140" fill="#000000" font-family="Helvetica" font-style="normal" font-weight="bold" font-size="216" text-anchor="middle">Ce:Hn</text>
<!-- Text -->
<text xml:space="preserve" x="4725" y="1440" fill="#000000" font-family="Helvetica" font-style="normal" font-weight="bold" font-size="216" text-anchor="middle">R:r</text>
<!-- Text -->
<text xml:space="preserve" x="3375" y="2790" fill="#000000" font-family="Helvetica" font-style="normal" font-weight="bold" font-size="216" text-anchor="middle">1</text>
<!-- Line -->
<polyline points=" 2250,2790 3150,2790 2925,3015"
	stroke="#000000" stroke-width="15px"/>
<!-- Line -->
<polyline points=" 2250,2610 3150,2610 2925,2835"
	stroke="#000000" stroke-width="15px"/>
<!-- Line -->
<polyline points=" 3600,2790 4500,2790 4275,3015"
	stroke="#000000" stroke-width="15px"/>
<!-- Line -->
<polyline points=" 3600,2610 4500,2610 4275,2835"
	stroke="#000000" stroke-width="15px"/>
<!-- Line -->
<polyline points=" 3375,2475 3375,1575 3600,1800"
	stroke="#000000" stroke-width="15px"/>
<!-- Line -->
<polyline points=" 3375,3825 3375,2925 3600,3150"
	stroke="#000000" stroke-width="15px"/>
<!-- Line -->
<polyline points=" 3600,2475 4500,1575 4500,1800"
	stroke="#000000" stroke-width="15px"/>
<!-- Line -->
<polyline points=" 2250,3825 3150,2925 3150,3150"
	stroke="#000000" stroke-width="15px"/>
</g>
</svg>
