<?xml version="1.0" standalone="no"?>
<!-- Creator: fig2dev Version 3.2.7a -->
<!-- CreationDate: 2022-04-01 14:32:22 -->
<!-- Magnification: 1.05 -->
<svg	xmlns="http://www.w3.org/2000/svg"
	xmlns:xlink="http://www.w3.org/1999/xlink"
	width="684pt" height="386pt"
	viewBox="428 428 10844 6119">
<g fill="none">
<!-- Line -->
<rect x="450" y="450" width="10800" height="6075" rx="105"
	stroke="#ffffff" stroke-width="15px"/>
<!-- Line -->
<rect x="675" y="2025" width="10350" height="450" rx="105"
	stroke="#0000ff" stroke-width="15px" stroke-dasharray="60 60"/>
<!-- Line -->
<rect x="675" y="4725" width="9675" height="450" rx="105"
	stroke="#0000ff" stroke-width="15px" stroke-dasharray="60 60"/>
<!-- Text -->
<text xml:space="preserve" x="10395" y="2340" fill="#0000ff" font-family="Times" font-style="italic" font-weight="bold" font-size="240" text-anchor="middle">Species</text>
<!-- Text -->
<text xml:space="preserve" x="9450" y="5040" fill="#0000ff" font-family="Times" font-style="italic" font-weight="bold" font-size="240" text-anchor="middle">Complexes</text>
<!-- Text -->
<text xml:space="preserve" x="1575" y="3690" fill="#000000" font-family="Helvetica" font-style="normal" font-weight="bold" font-size="216" text-anchor="middle">1</text>
<!-- Text -->
<text xml:space="preserve" x="8325" y="3690" fill="#000000" font-family="Helvetica" font-style="normal" font-weight="bold" font-size="216" text-anchor="middle">1</text>
<!-- Text -->
<text xml:space="preserve" x="6975" y="3690" fill="#000000" font-family="Helvetica" font-style="normal" font-weight="bold" font-size="216" text-anchor="middle">1</text>
<!-- Text -->
<text xml:space="preserve" x="5625" y="3690" fill="#000000" font-family="Helvetica" font-style="normal" font-weight="bold" font-size="216" text-anchor="middle">1</text>
<!-- Text -->
<text xml:space="preserve" x="4275" y="3690" fill="#000000" font-family="Helvetica" font-style="normal" font-weight="bold" font-size="216" text-anchor="middle">1</text>
<!-- Text -->
<text xml:space="preserve" x="2925" y="2340" fill="#000000" font-family="Helvetica" font-style="normal" font-weight="bold" font-size="216" text-anchor="middle">0</text>
<!-- Text -->
<text xml:space="preserve" x="2925" y="3690" fill="#000000" font-family="Helvetica" font-style="normal" font-weight="bold" font-size="216" text-anchor="middle">1</text>
<!-- Text -->
<text xml:space="preserve" x="1575" y="2340" fill="#000000" font-family="Helvetica" font-style="normal" font-weight="bold" font-size="216" text-anchor="middle">0</text>
<!-- Text -->
<text xml:space="preserve" x="1575" y="5040" fill="#000000" font-family="Helvetica" font-style="normal" font-weight="bold" font-size="216" text-anchor="middle">0</text>
<!-- Text -->
<text xml:space="preserve" x="2925" y="5040" fill="#000000" font-family="Helvetica" font-style="normal" font-weight="bold" font-size="216" text-anchor="middle">0</text>
<!-- Text -->
<text xml:space="preserve" x="4275" y="5040" fill="#000000" font-family="Helvetica" font-style="normal" font-weight="bold" font-size="216" text-anchor="middle">0</text>
<!-- Text -->
<text xml:space="preserve" x="5625" y="5040" fill="#000000" font-family="Helvetica" font-style="normal" font-weight="bold" font-size="216" text-anchor="middle">0</text>
<!-- Text -->
<text xml:space="preserve" x="6975" y="5040" fill="#000000" font-family="Helvetica" font-style="normal" font-weight="bold" font-size="216" text-anchor="middle">0</text>
<!-- Text -->
<text xml:space="preserve" x="8325" y="5040" fill="#000000" font-family="Helvetica" font-style="normal" font-weight="bold" font-size="216" text-anchor="middle">0</text>
<!-- Text -->
<text xml:space="preserve" x="7650" y="6165" fill="#000000" font-family="Helvetica" font-style="normal" font-weight="bold" font-size="216" text-anchor="middle">Re:r3</text>
<!-- Text -->
<text xml:space="preserve" x="2250" y="6165" fill="#000000" font-family="Helvetica" font-style="normal" font-weight="bold" font-size="216" text-anchor="middle">Re:r1</text>
<!-- Text -->
<text xml:space="preserve" x="4950" y="6165" fill="#000000" font-family="Helvetica" font-style="normal" font-weight="bold" font-size="216" text-anchor="middle">Re:r2</text>
<!-- Text -->
<text xml:space="preserve" x="6975" y="990" fill="#000000" font-family="Helvetica" font-style="normal" font-weight="bold" font-size="216" text-anchor="middle">Ce:Hn</text>
<!-- Text -->
<text xml:space="preserve" x="6975" y="2340" fill="#000000" font-family="Helvetica" font-style="normal" font-weight="bold" font-size="216" text-anchor="middle">0</text>
<!-- Text -->
<text xml:space="preserve" x="9675" y="2340" fill="#000000" font-family="Helvetica" font-style="normal" font-weight="bold" font-size="216" text-anchor="middle">0</text>
<!-- Text -->
<text xml:space="preserve" x="8325" y="990" fill="#000000" font-family="Helvetica" font-style="normal" font-weight="bold" font-size="216" text-anchor="middle">Ce:NADP</text>
<!-- Text -->
<text xml:space="preserve" x="8325" y="2340" fill="#000000" font-family="Helvetica" font-style="normal" font-weight="bold" font-size="216" text-anchor="middle">0</text>
<!-- Text -->
<text xml:space="preserve" x="9900" y="990" fill="#000000" font-family="Helvetica" font-style="normal" font-weight="bold" font-size="216" text-anchor="middle">Ce:NADPH</text>
<!-- Text -->
<text xml:space="preserve" x="5625" y="990" fill="#000000" font-family="Helvetica" font-style="normal" font-weight="bold" font-size="216" text-anchor="middle">C:E2</text>
<!-- Text -->
<text xml:space="preserve" x="5625" y="2340" fill="#000000" font-family="Helvetica" font-style="normal" font-weight="bold" font-size="216" text-anchor="middle">0</text>
<!-- Text -->
<text xml:space="preserve" x="2250" y="990" fill="#000000" font-family="Helvetica" font-style="normal" font-weight="bold" font-size="216" text-anchor="end">Ce:FdRed</text>
<!-- Text -->
<text xml:space="preserve" x="4275" y="990" fill="#000000" font-family="Helvetica" font-style="normal" font-weight="bold" font-size="216" text-anchor="middle">C:E1</text>
<!-- Text -->
<text xml:space="preserve" x="4275" y="2340" fill="#000000" font-family="Helvetica" font-style="normal" font-weight="bold" font-size="216" text-anchor="middle">0</text>
<!-- Text -->
<text xml:space="preserve" x="2925" y="990" fill="#000000" font-family="Helvetica" font-style="normal" font-weight="bold" font-size="216" text-anchor="middle">Ce:FdOx</text>
<!-- Line -->
<polyline points=" 1575,2025 1575,1125 1800,1350"
	stroke="#000000" stroke-width="15px"/>
<!-- Line -->
<polyline points=" 3150,3375 4050,2475 4050,2700"
	stroke="#000000" stroke-width="15px"/>
<!-- Line -->
<polyline points=" 6975,2025 6975,1125 7200,1350"
	stroke="#000000" stroke-width="15px"/>
<!-- Line -->
<polyline points=" 8550,3375 9450,2475 9450,2700"
	stroke="#000000" stroke-width="15px"/>
<!-- Line -->
<polyline points=" 9675,2025 9675,1125 9900,1350"
	stroke="#000000" stroke-width="15px"/>
<!-- Line -->
<polyline points=" 8325,2025 8325,1125 8550,1350"
	stroke="#000000" stroke-width="15px"/>
<!-- Line -->
<polyline points=" 5625,2025 5625,1125 5850,1350"
	stroke="#000000" stroke-width="15px"/>
<!-- Line -->
<polyline points=" 5625,3375 5625,2475 5850,2700"
	stroke="#000000" stroke-width="15px"/>
<!-- Line -->
<polyline points=" 2925,3375 2925,2475 3150,2700"
	stroke="#000000" stroke-width="15px"/>
<!-- Line -->
<polyline points=" 2925,2025 2925,1125 3150,1350"
	stroke="#000000" stroke-width="15px"/>
<!-- Line -->
<polyline points=" 4275,2025 4275,1125 4500,1350"
	stroke="#000000" stroke-width="15px"/>
<!-- Line -->
<polyline points=" 2925,4725 2925,3825 3150,4050"
	stroke="#000000" stroke-width="15px"/>
<!-- Line -->
<polyline points=" 5625,4725 5625,3825 5850,4050"
	stroke="#000000" stroke-width="15px"/>
<!-- Line -->
<polyline points=" 8325,4725 8325,3825 8550,4050"
	stroke="#000000" stroke-width="15px"/>
<!-- Line -->
<polyline points=" 1575,3375 1575,2475 1800,2700"
	stroke="#000000" stroke-width="15px"/>
<!-- Line -->
<polyline points=" 1575,4725 1575,3825 1800,4050"
	stroke="#000000" stroke-width="15px"/>
<!-- Line -->
<polyline points=" 4275,4725 4275,3825 4500,4050"
	stroke="#000000" stroke-width="15px"/>
<!-- Line -->
<polyline points=" 6975,4725 6975,3825 7200,4050"
	stroke="#000000" stroke-width="15px"/>
<!-- Line -->
<polyline points=" 1575,5175 1575,6075 1800,5850"
	stroke="#000000" stroke-width="15px"/>
<!-- Line -->
<polyline points=" 4275,5175 4275,6075 4500,5850"
	stroke="#000000" stroke-width="15px"/>
<!-- Line -->
<polyline points=" 6975,5175 6975,6075 7200,5850"
	stroke="#000000" stroke-width="15px"/>
<!-- Line -->
<polyline points=" 2925,6075 2925,5175 3150,5400"
	stroke="#000000" stroke-width="15px"/>
<!-- Line -->
<polyline points=" 5625,6075 5625,5175 5850,5400"
	stroke="#000000" stroke-width="15px"/>
<!-- Line -->
<polyline points=" 8325,6075 8325,5175 8550,5400"
	stroke="#000000" stroke-width="15px"/>
<!-- Line -->
<polyline points=" 7200,3375 8100,2475 8100,2700"
	stroke="#000000" stroke-width="15px"/>
<!-- Line -->
<polyline points=" 6750,3375 5850,2475 6075,2475"
	stroke="#000000" stroke-width="15px"/>
<!-- Line -->
<polyline points=" 6750,3150 5850,2250 6075,2250"
	stroke="#000000" stroke-width="15px"/>
<!-- Line -->
<polyline points=" 4275,3375 4275,2475 4500,2700"
	stroke="#000000" stroke-width="15px"/>
<!-- Line -->
<polyline points=" 6975,3375 6975,2475 7200,2700"
	stroke="#000000" stroke-width="15px"/>
</g>
</svg>
